HIERARCHY
ROOT root
{
	OFFSET 0.000000 0.000000 0.000000
	CHANNELS 6 Xposition Yposition Zposition Zrotation Yrotation Xrotation
	JOINT lhip
	{
		OFFSET 0.058581 -0.082280 -0.017664
		CHANNELS 3 Zrotation Yrotation Xrotation
		JOINT lknee
		{
			OFFSET 0.043451 -0.386469 0.008037
			CHANNELS 3 Zrotation Yrotation Xrotation
			JOINT lankle
			{
				OFFSET -0.014790 -0.426874 -0.037428
				CHANNELS 3 Zrotation Yrotation Xrotation
				JOINT ltoe
				{
					OFFSET 0.041054 -0.060286 0.122042
					CHANNELS 3 Zrotation Yrotation Xrotation
					End Site
					{
						OFFSET 0.000000 0.000000 0.000000
					}
				}
			}
		}
	}
	JOINT rhip
	{
		OFFSET -0.060310 -0.090513 -0.013543
		CHANNELS 3 Zrotation Yrotation Xrotation
		JOINT rknee
		{
			OFFSET -0.043257 -0.383688 -0.004843
			CHANNELS 3 Zrotation Yrotation Xrotation
			JOINT rankle
			{
				OFFSET 0.019056 -0.420046 -0.034562
				CHANNELS 3 Zrotation Yrotation Xrotation
				JOINT rtoe
				{
					OFFSET -0.034840 -0.062106 0.130323
					CHANNELS 3 Zrotation Yrotation Xrotation
					End Site
					{
						OFFSET 0.000000 0.000000 0.000000
					}
				}
			}
		}
	}
	JOINT lowerback
	{
		OFFSET 0.004439 0.124404 -0.038385
		CHANNELS 3 Zrotation Yrotation Xrotation
		JOINT upperback
		{
			OFFSET 0.004488 0.137956 0.026820
			CHANNELS 3 Zrotation Yrotation Xrotation
			JOINT chest
			{
				OFFSET -0.002265 0.056032 0.002855
				CHANNELS 3 Zrotation Yrotation Xrotation
				JOINT lowerneck
				{
					OFFSET -0.013390 0.211636 -0.033468
					CHANNELS 3 Zrotation Yrotation Xrotation
					JOINT upperneck
					{
						OFFSET 0.010113 0.088937 0.050410
						CHANNELS 3 Zrotation Yrotation Xrotation
						End Site
						{
							OFFSET 0.000000 0.000000 0.000000
						}
					}
				}
				JOINT lclavicle
				{
					OFFSET 0.071702 0.114000 -0.018898
					CHANNELS 3 Zrotation Yrotation Xrotation
					JOINT lshoulder
					{
						OFFSET 0.122921 0.045205 -0.019046
						CHANNELS 3 Zrotation Yrotation Xrotation
						JOINT lelbow
						{
							OFFSET 0.255332 -0.015649 -0.022946
							CHANNELS 3 Zrotation Yrotation Xrotation
							JOINT lwrist
							{
								OFFSET 0.265709 0.012698 -0.007375
								CHANNELS 3 Zrotation Yrotation Xrotation
								End Site
								{
									OFFSET 0.000000 0.000000 0.000000
								}
							}
						}
					}
				}
				JOINT rclavicle
				{
					OFFSET -0.082954 0.112472 -0.023707
					CHANNELS 3 Zrotation Yrotation Xrotation
					JOINT rshoulder
					{
						OFFSET -0.113228 0.046853 -0.008472
						CHANNELS 3 Zrotation Yrotation Xrotation
						JOINT relbow
						{
							OFFSET -0.260127 -0.014369 -0.031269
							CHANNELS 3 Zrotation Yrotation Xrotation
							JOINT rwrist
							{
								OFFSET -0.269108 0.006794 -0.006027
								CHANNELS 3 Zrotation Yrotation Xrotation
								End Site
								{
									OFFSET 0.000000 0.000000 0.000000
								}
							}
						}
					}
				}
			}
		}
	}
}
MOTION
Frames: 14
Frame Time: 0.033333
-2.144396 0.769707 1.011155 54.399560 0.725884 88.150744 2.346976 5.618119 6.134592 -2.547976 -0.649872 6.575031 0.143638 8.318230 -9.212199 0.000000 -0.000000 0.000000 2.612772 -10.941457 -3.945254 -4.826447 -25.073773 20.914782 -0.877432 -22.472802 -2.012158 0.000000 -0.000000 0.000000 -0.878290 0.286696 7.822771 1.275917 -2.119150 1.295824 2.827685 -0.604676 -1.180467 0.655481 13.853682 -7.437461 -2.033146 15.973975 -6.487576 -24.514971 -7.641425 4.170523 -54.321342 -9.803660 11.598171 -5.621682 -27.093655 25.187522 -2.012713 -0.700146 -1.458271 21.395634 5.094917 4.659868 56.883813 2.054588 13.555331 -11.541110 24.551681 4.386639 1.955656 -0.480286 -0.587066 
-2.147415 0.777546 1.010441 58.687488 0.247692 87.916573 1.357881 5.252997 6.432040 -1.925154 -3.244563 4.381090 0.344942 8.185025 -9.111008 0.000000 -0.000000 0.000000 1.020489 -11.204813 -6.676632 -5.930973 -26.305104 26.543823 -1.828428 -23.774951 -1.377220 0.000000 -0.000000 0.000000 -0.317818 -0.225574 8.126524 1.032472 -1.705748 1.383614 2.376455 -0.474968 -0.755808 0.201724 12.880175 -7.464508 -2.278461 14.774071 -7.281114 -23.844909 -6.707109 3.908849 -53.781369 -9.386459 11.173170 -5.701562 -26.616976 25.670920 0.125908 -0.738011 -0.755418 21.130390 4.814150 4.463710 56.780533 2.242430 13.313842 -11.211519 25.172202 3.936633 0.088279 0.070504 -0.290778 
-2.150954 0.785183 1.007812 63.429413 0.205153 87.158313 1.046978 4.586040 6.712611 -1.848350 -5.656191 3.601017 1.217583 8.274247 -10.762287 0.000000 -0.000000 0.000000 -0.379636 -10.714748 -8.684670 -5.958704 -25.381556 32.199115 -3.186100 -23.299928 -1.194594 0.000000 -0.000000 0.000000 0.334776 -0.916090 8.604585 1.212987 -1.714134 2.115845 2.164769 -0.369985 -0.624023 -0.275350 11.152193 -6.691865 -2.650373 13.243346 -8.456850 -23.353617 -6.862157 4.230969 -53.207867 -8.842267 10.003578 -4.237440 -25.607233 23.494951 -1.262652 -0.191909 -1.790041 20.737475 5.233625 4.394471 56.219197 1.685989 12.954786 -11.942059 27.287644 3.132318 0.755656 0.000776 -1.049887 
-2.156021 0.792234 1.000979 66.859625 0.251165 86.195870 0.667873 4.238309 7.314995 -1.353314 -8.804504 2.912630 2.069569 8.970740 -13.750307 0.000000 -0.000000 0.000000 -1.279859 -8.421066 -10.684642 -5.660572 -21.945346 37.781656 -2.771575 -21.363412 -5.660805 0.000000 -0.000000 0.000000 0.867495 -1.353972 10.288675 1.389036 -1.071679 1.887051 2.141255 -0.266680 -0.357098 -0.410735 10.126342 -6.461329 -3.136826 11.283891 -9.289656 -23.109660 -6.728430 3.692026 -52.348088 -7.884251 9.129266 -2.785150 -25.497417 21.792062 -0.030419 -0.005776 -0.667119 20.258954 5.493762 3.939495 55.356552 1.226542 12.560004 -12.186745 29.957597 3.041438 -0.435945 0.670801 -1.844242 
-2.161121 0.796844 0.992374 70.503355 -0.062205 85.773020 0.151089 3.661422 5.883427 -1.546090 -11.980079 4.884638 2.965018 9.304675 -15.723780 0.000000 -0.000000 0.000000 -1.742087 -6.140519 -12.216901 -4.661566 -16.366729 39.527045 -1.808863 -19.563024 -12.321298 0.000000 -0.000000 0.000000 0.703568 -1.419493 11.311870 1.660817 -0.816244 1.943743 2.055667 -0.138561 0.098670 -0.185525 9.697168 -7.220074 -3.459900 9.178643 -9.973017 -23.249256 -6.754570 2.826813 -50.572652 -7.473329 8.781003 -1.892537 -24.496901 19.785841 1.607196 0.083377 -0.524518 21.102359 5.503300 3.171578 53.345394 0.926458 12.869033 -12.283702 31.973152 2.613443 -1.904135 1.622161 -2.543191 
-2.165904 0.797968 0.988500 73.890578 -0.681097 85.756412 -0.559108 2.046078 3.379500 -2.523300 -13.900974 8.374414 2.596450 9.673950 -17.495053 0.000000 -0.000000 0.000000 -1.636663 -2.780133 -12.277318 -3.322413 -9.029096 36.254319 -0.361762 -16.941847 -17.212081 0.000000 -0.000000 0.000000 0.445681 -1.099386 11.251183 1.671571 -0.808838 2.028841 1.501745 0.009960 0.701246 0.450798 9.572973 -7.685766 -3.359182 6.389141 -10.100079 -23.918039 -6.624494 2.191398 -47.997495 -7.417047 8.480322 -0.341108 -22.192888 16.724265 3.353429 -0.298083 -0.648705 22.597096 5.692684 2.864554 51.974788 1.770725 13.562617 -12.106469 30.302947 2.073712 -6.737640 2.546595 -4.044587 
-2.168086 0.796473 0.989285 77.513016 -1.228975 85.065124 -1.274296 0.384883 2.685867 -2.838039 -15.492441 10.416878 2.119686 9.747234 -18.421739 0.000000 -0.000000 0.000000 -0.980523 0.944891 -9.369685 -2.501372 -0.566126 29.335870 1.114535 -13.172464 -19.910149 0.000000 -0.000000 0.000000 0.045789 -0.780267 10.711790 1.689959 -1.281794 2.760861 1.131858 0.256908 0.958837 0.820143 8.758890 -6.404473 -2.580553 4.130485 -10.330575 -23.413534 -6.184337 1.997314 -47.870436 -7.178204 8.076002 2.727129 -19.822851 13.433667 4.163159 0.359557 -0.297454 22.605848 5.731736 2.100817 52.827438 2.327608 13.803775 -11.979573 27.337096 3.341958 -6.979864 1.405948 -3.412125 
-2.167328 0.793155 0.990035 81.304062 -1.581469 84.511386 -1.967878 -0.893696 3.142806 -2.095022 -17.076162 10.336148 1.957594 9.848260 -18.710297 0.000000 -0.000000 0.000000 -0.218768 3.845370 -6.047416 -2.015261 6.183321 23.071351 2.896096 -9.670318 -20.256604 0.000000 -0.000000 0.000000 -0.424574 -0.644785 9.374727 1.823436 -1.491146 3.335988 0.800250 0.483796 1.486446 1.307852 7.162766 -4.701574 -1.679577 1.554062 -10.052618 -22.563216 -4.779312 0.999190 -48.551336 -7.564417 7.878299 4.812921 -17.119847 11.730393 3.535381 1.875742 -0.038591 22.194744 5.278707 1.518695 54.071408 2.309031 14.804106 -11.369595 25.298605 4.631340 -5.962922 -0.539584 -3.671798 
-2.166825 0.787118 0.989710 85.278997 -1.549600 83.863872 -2.059537 -2.036797 3.246767 -1.491457 -18.706541 11.117521 1.759303 9.897084 -19.247330 0.000000 -0.000000 0.000000 0.761280 4.097549 -3.422831 -2.548461 6.022540 20.347285 2.632268 -10.331410 -20.447293 0.000000 -0.000000 0.000000 -0.994423 -0.331567 9.262637 1.815822 -1.508697 3.161860 0.920803 0.469377 1.809026 1.483467 5.019397 -4.536365 -0.485721 -0.567241 -9.793095 -22.292377 -3.078767 0.503497 -48.219109 -7.476046 7.036237 5.758050 -17.962666 9.223847 2.041216 1.700765 -1.681097 22.460063 4.396471 0.662448 54.131374 1.345648 15.382185 -9.893818 26.083255 7.737895 -1.818953 0.136387 -2.191704 
-2.166967 0.779271 0.989080 88.485215 -1.148322 83.440975 -1.234324 -2.862896 2.724613 -1.584840 -19.807301 12.243934 1.243154 9.075327 -18.634047 0.000000 -0.000000 0.000000 1.854125 2.493814 -0.787287 -3.766252 3.540306 16.604178 1.714068 -11.034487 -19.455570 0.000000 -0.000000 0.000000 -1.166454 0.458973 9.596532 1.427574 -1.367388 2.731832 1.106555 0.626254 1.939746 1.639601 2.811626 -4.078531 0.881267 -2.560284 -10.322071 -22.297878 -1.876539 0.195632 -47.115318 -7.020956 6.512068 5.226929 -20.261424 7.294443 4.977731 1.202136 -3.753696 22.644564 4.073447 0.456910 54.380014 0.144047 16.147173 -7.693826 27.635668 10.104432 -4.671943 0.842981 -2.301991 
-2.169594 0.771537 0.988563 90.887390 -1.228460 84.120680 -0.616486 -4.497867 -0.217479 -2.928879 -18.759841 15.458622 1.407917 8.546633 -17.910723 0.000000 -0.000000 0.000000 2.025340 0.965720 -0.416267 -3.694042 3.508825 14.380912 1.256101 -11.512921 -18.963790 0.000000 -0.000000 0.000000 -1.636364 1.676506 9.041979 1.151938 -1.412160 2.444003 0.754105 0.746535 2.253105 2.073247 1.121529 -4.656976 2.083785 -4.560398 -10.434986 -21.712543 -0.361865 -0.001784 -46.564258 -7.251087 6.531928 4.033546 -22.174574 6.235916 2.664357 0.288249 -8.462435 22.478501 3.578496 0.356188 55.429269 -0.062103 17.560246 -6.351313 29.231330 12.369148 -4.360381 0.848663 -2.147776 
-2.170879 0.764119 0.989048 92.492663 -1.584805 84.699204 -0.447332 -4.781125 -2.697490 -3.831324 -17.539912 18.120404 1.647477 8.051217 -18.250550 0.000000 -0.000000 0.000000 2.160996 0.011176 -0.801697 -3.877436 3.698832 14.095866 1.310813 -12.022598 -20.052055 0.000000 -0.000000 0.000000 -2.428041 2.612260 8.279387 0.764290 -1.138150 2.008409 0.411301 1.064744 2.639106 2.833081 -0.410264 -4.691442 3.222078 -6.517156 -9.843985 -21.166559 0.711257 -0.217823 -46.808576 -7.009245 6.676599 4.637815 -22.719871 6.569112 4.460545 0.425439 -8.438192 22.251869 3.324670 0.175886 56.670058 -0.149214 18.387673 -4.582589 29.925571 15.048776 -4.630861 0.760151 -2.143737 
-2.169003 0.757782 0.990575 93.940163 -1.735392 84.255880 -0.446944 -4.215979 -3.219267 -4.517179 -15.543714 19.461999 1.735567 8.245271 -18.561766 0.000000 -0.000000 0.000000 2.602461 -0.245086 0.879615 -4.207542 2.878287 12.346520 1.004865 -12.458476 -20.167679 0.000000 -0.000000 0.000000 -3.024936 3.084495 7.873418 0.428315 -0.952454 2.507155 0.190009 1.268619 2.828196 3.403585 -1.715547 -4.698259 4.089636 -7.661574 -9.315904 -21.399845 1.110290 -0.279881 -47.402623 -6.127327 6.481421 5.679593 -22.030330 6.745627 5.837742 1.042788 -6.679112 22.443404 3.851734 -0.011300 57.371615 0.019876 18.892818 -3.665923 30.004614 16.795567 -4.341741 0.880005 -2.474130 
-2.165639 0.753107 0.992456 95.110489 -1.680471 83.409965 -0.756244 -3.058870 -2.603803 -4.430117 -11.874511 19.237828 1.001141 9.129252 -18.013797 0.000000 -0.000000 0.000000 3.368735 -0.020323 3.076563 -4.814196 1.456117 10.608718 0.835525 -12.647145 -20.126168 0.000000 -0.000000 0.000000 -2.992921 3.218180 8.285543 -0.034767 -0.770597 2.586078 -0.070708 1.492144 2.893726 3.623365 -2.979777 -4.229164 4.849980 -8.658499 -9.149999 -22.224349 1.218571 -0.089896 -48.230885 -5.340115 6.001123 6.372174 -20.039888 5.051274 5.263682 0.575763 -6.461803 22.505128 3.983679 -0.282253 58.101549 0.616679 18.888352 -3.485863 30.055238 17.115037 -3.833293 0.969255 -2.642596 
